<?xml version="1.0" standalone="no"?>
<!DOCTYPE svg PUBLIC "-//W3C//DTD SVG 20010904//EN"
 "http://www.w3.org/TR/2001/REC-SVG-20010904/DTD/svg10.dtd">
<svg version="1.0" xmlns="http://www.w3.org/2000/svg"
 width="7719.000000pt" height="2697.000000pt" viewBox="0 0 7719.000000 2697.000000"
 preserveAspectRatio="xMidYMid meet">

<g transform="translate(0.000000,2697.000000) scale(0.100000,-0.100000)"
fill="#000000" stroke="none">
<path d="M8020 17723 c0 -5635 4 -9355 10 -9523 9 -274 16 -370 45 -675 29
-300 53 -452 120 -755 60 -270 66 -292 125 -470 31 -96 60 -188 64 -205 11
-48 131 -328 204 -475 36 -74 69 -144 73 -156 4 -12 35 -66 69 -120 35 -54 71
-115 81 -134 9 -20 42 -71 73 -113 31 -43 61 -88 67 -100 14 -25 115 -153 216
-272 90 -106 340 -354 428 -424 39 -31 75 -61 80 -67 6 -6 37 -31 70 -55 33
-24 61 -47 63 -51 2 -3 33 -26 70 -49 37 -24 69 -46 72 -50 4 -5 141 -91 250
-157 107 -64 425 -221 535 -263 28 -11 59 -24 70 -29 111 -53 548 -190 775
-244 531 -125 1023 -186 1665 -205 968 -30 1857 71 2645 299 155 45 440 139
455 150 6 4 28 13 50 20 111 35 588 255 685 315 19 12 85 50 145 85 61 34 142
83 181 108 184 122 219 145 224 151 3 4 30 25 60 47 113 80 262 203 390 318
85 76 372 371 429 439 165 199 411 534 411 559 0 4 21 40 47 80 125 191 313
591 406 858 119 343 267 937 267 1070 0 20 7 83 15 141 26 185 45 409 55 644
6 147 10 3548 10 9393 l0 9162 -5850 0 -5850 0 0 -9247z"/>
<path d="M33470 26960 c572 -8 1099 -25 1225 -40 44 -5 141 -12 215 -15 315
-14 1044 -69 1330 -100 74 -8 239 -26 365 -40 1760 -190 3415 -555 4825 -1063
285 -103 579 -217 677 -262 24 -11 45 -20 48 -20 2 0 28 -11 57 -24 29 -13 96
-42 149 -64 53 -23 134 -59 180 -80 46 -22 118 -54 159 -73 131 -60 651 -324
750 -381 52 -30 120 -68 150 -83 30 -15 57 -31 60 -35 3 -4 24 -17 47 -29 23
-11 91 -51 150 -87 59 -37 135 -83 168 -102 33 -19 62 -38 65 -42 3 -3 34 -24
70 -45 36 -22 70 -43 75 -47 6 -5 69 -48 141 -96 127 -85 209 -142 345 -239
139 -100 203 -149 220 -164 9 -9 43 -36 75 -59 33 -24 64 -48 69 -54 6 -7 33
-30 61 -51 93 -73 218 -179 392 -335 120 -107 530 -511 574 -566 18 -23 87
-103 153 -177 163 -185 249 -287 255 -302 3 -7 33 -48 67 -91 94 -118 218
-287 225 -305 3 -8 36 -56 72 -107 36 -50 66 -95 66 -99 0 -4 32 -55 70 -113
38 -58 70 -108 70 -112 0 -4 25 -49 56 -100 53 -87 133 -234 203 -373 112
-224 151 -305 164 -345 9 -25 45 -112 81 -194 36 -82 66 -154 66 -161 0 -7 24
-75 53 -152 60 -152 72 -190 146 -438 54 -182 67 -233 136 -535 61 -269 95
-449 105 -555 5 -49 18 -157 30 -240 32 -234 58 -536 69 -815 6 -140 13 -304
16 -363 7 -140 -11 -556 -35 -817 -46 -500 -104 -844 -236 -1405 -9 -38 -41
-147 -70 -242 -30 -95 -54 -179 -54 -188 0 -9 -32 -100 -71 -203 -39 -103 -73
-198 -76 -212 -3 -14 -37 -97 -74 -185 -38 -87 -69 -163 -69 -168 0 -8 -121
-271 -167 -362 -75 -151 -166 -319 -206 -386 -26 -42 -47 -80 -47 -84 0 -5
-34 -61 -75 -125 -41 -64 -75 -120 -75 -123 0 -4 -31 -51 -70 -106 -38 -55
-70 -103 -70 -107 0 -4 -30 -47 -67 -97 -38 -50 -73 -101 -80 -114 -7 -13 -39
-57 -72 -97 -34 -41 -61 -77 -61 -81 0 -4 -28 -40 -62 -82 -35 -41 -70 -86
-80 -100 -30 -46 -269 -324 -358 -418 -37 -38 -72 -78 -76 -87 -17 -32 -381
-394 -580 -578 -149 -137 -183 -167 -269 -240 -49 -41 -107 -91 -129 -111
-120 -105 -478 -382 -671 -519 -38 -28 -101 -73 -140 -100 -167 -120 -399
-274 -560 -372 -38 -23 -72 -45 -75 -49 -3 -3 -34 -23 -70 -43 -36 -21 -103
-60 -150 -88 -290 -174 -792 -439 -1092 -577 -38 -17 -96 -44 -130 -60 -35
-16 -97 -43 -138 -61 -41 -18 -97 -43 -125 -55 -27 -13 -72 -32 -100 -43 -27
-11 -90 -36 -140 -56 -1203 -489 -2545 -825 -3966 -991 -779 -91 -1450 -127
-2339 -127 -1572 0 -2856 125 -4090 397 -172 38 -629 152 -715 178 -27 9 -84
25 -125 37 -41 12 -125 37 -186 56 -61 19 -114 34 -117 34 -4 0 -7 -1802 -7
-4005 l0 -4005 9090 0 9090 0 0 6123 c0 3368 -3 9432 -7 13475 l-6 7352 -7636
-2 c-4200 -1 -7400 -5 -7111 -8z"/>
<path d="M59515 26959 c574 -7 1067 -23 1210 -39 50 -5 214 -17 365 -25 1310
-75 2694 -273 3670 -526 222 -58 416 -110 475 -129 33 -10 107 -33 165 -50
281 -86 723 -244 867 -310 24 -11 46 -20 49 -20 4 0 43 -16 88 -36 554 -248
894 -437 1312 -731 99 -70 332 -255 413 -328 169 -153 384 -368 412 -413 9
-15 29 -38 44 -52 15 -14 46 -50 69 -80 23 -30 67 -87 99 -126 31 -39 57 -75
57 -80 0 -5 27 -45 60 -89 32 -44 69 -99 81 -123 11 -24 50 -91 85 -150 35
-58 64 -111 64 -116 0 -5 29 -67 65 -137 36 -71 76 -159 89 -196 13 -38 49
-134 80 -215 31 -80 56 -157 56 -170 0 -12 11 -57 24 -98 31 -96 92 -363 105
-460 62 -440 77 -950 36 -1235 -9 -60 -20 -146 -25 -190 -10 -95 -46 -242
-101 -415 -22 -69 -45 -141 -51 -160 -6 -19 -37 -93 -69 -164 -33 -71 -59
-134 -59 -139 0 -5 -26 -54 -58 -110 -32 -56 -70 -127 -85 -157 -14 -30 -50
-90 -81 -133 -31 -42 -56 -81 -56 -85 0 -5 -30 -46 -67 -93 -38 -46 -75 -95
-84 -109 -9 -14 -44 -55 -78 -93 -33 -37 -61 -71 -61 -75 0 -19 -416 -425
-522 -509 -19 -16 -43 -36 -53 -46 -10 -10 -43 -37 -74 -60 -30 -23 -63 -49
-72 -58 -9 -9 -43 -35 -75 -58 -33 -23 -93 -67 -134 -97 -41 -30 -127 -89
-190 -130 -63 -42 -126 -84 -140 -94 -14 -9 -74 -46 -135 -82 -60 -36 -126
-74 -145 -86 -155 -92 -455 -244 -715 -362 -92 -41 -402 -170 -410 -170 -4 0
-21 -7 -38 -15 -42 -19 -300 -112 -457 -165 -619 -207 -1387 -393 -2115 -511
-110 -18 -202 -34 -204 -36 -13 -10 32 -16 270 -38 1530 -142 2864 -407 4069
-808 171 -57 530 -186 575 -207 11 -5 63 -25 115 -46 94 -37 382 -158 492
-207 245 -111 813 -397 828 -418 3 -3 34 -21 70 -39 36 -18 67 -36 70 -40 3
-4 28 -19 55 -34 45 -24 115 -66 305 -186 96 -60 211 -137 410 -275 36 -24 74
-53 85 -63 11 -10 42 -33 69 -52 27 -18 56 -40 65 -49 9 -9 44 -36 76 -60 33
-24 65 -49 70 -55 6 -6 42 -36 80 -66 39 -30 76 -63 83 -72 7 -10 17 -18 23
-18 5 0 9 2449 9 6540 l0 6540 -6017 -2 c-3310 -1 -5779 -5 -5488 -9z"/>
<path d="M30050 18874 c0 -3367 4 -5724 10 -5834 14 -286 29 -493 46 -635 18
-149 72 -436 109 -573 14 -51 25 -103 25 -115 0 -19 39 -137 125 -382 30 -85
57 -146 109 -245 28 -52 51 -101 52 -108 1 -7 24 -46 51 -88 26 -41 63 -98 81
-127 73 -117 273 -341 412 -461 463 -401 1195 -663 2105 -750 375 -36 945 -47
1335 -26 1034 57 1936 278 2750 673 127 61 506 271 520 287 3 4 31 21 63 39
31 18 63 38 70 44 6 7 43 32 82 57 38 25 77 50 85 57 8 7 67 51 130 98 63 47
124 93 135 103 11 10 43 35 70 57 28 21 57 46 65 54 9 9 42 38 75 66 150 125
527 504 631 634 10 13 46 56 79 95 34 39 72 87 85 106 14 19 52 70 85 112 92
117 326 464 343 507 3 9 28 52 56 96 101 163 355 675 377 760 4 16 39 108 78
203 39 95 71 179 71 186 0 8 29 101 64 207 35 107 67 212 71 234 4 22 31 135
60 250 56 226 69 287 115 580 58 369 90 659 110 1000 13 219 13 901 0 1120
-34 579 -115 1157 -226 1620 -24 99 -50 209 -59 245 -24 103 -132 442 -187
590 -28 74 -63 171 -78 215 -16 45 -56 140 -89 212 -34 73 -61 137 -61 143 0
12 -49 112 -59 120 -4 3 -15 24 -25 48 -11 23 -23 42 -28 42 -5 0 -6 5 -3 10
3 6 1 10 -5 10 -6 0 -8 5 -5 10 3 6 1 10 -4 10 -6 0 -11 8 -11 18 0 10 -7 27
-15 38 -8 12 -11 24 -8 28 3 3 2 6 -4 6 -8 0 -22 22 -34 55 -2 6 -9 17 -16 25
-7 8 -14 20 -15 25 -1 6 -10 19 -20 29 -9 10 -15 23 -12 28 3 4 1 8 -4 8 -6 0
-15 13 -20 30 -6 16 -25 50 -42 75 -17 25 -27 45 -23 45 4 0 3 4 -3 8 -13 9
-74 98 -74 108 0 9 -74 118 -101 149 -9 11 -27 38 -39 59 -12 22 -50 76 -86
122 -35 45 -64 85 -64 89 0 4 -31 45 -70 91 -38 45 -70 86 -70 89 0 9 -147
178 -285 328 -171 186 -386 397 -530 518 -22 19 -47 41 -55 50 -8 9 -37 34
-65 55 -27 21 -58 46 -68 56 -10 10 -43 37 -75 60 -31 24 -61 48 -67 54 -5 6
-40 33 -78 60 -37 27 -102 74 -145 106 -42 31 -104 73 -137 94 -33 21 -62 41
-65 44 -14 19 -190 127 -468 287 -150 86 -570 303 -587 303 -3 0 -29 11 -58
25 -28 14 -106 49 -172 76 -66 28 -129 54 -140 59 -33 15 -243 95 -352 134
-920 329 -1929 529 -3083 611 -437 31 -648 36 -1682 42 l-1058 6 0 -5649z"/>
<path d="M55210 21015 l0 -3455 1248 0 c1186 0 1564 6 1927 30 702 46 1357
155 1907 316 140 40 318 99 365 120 17 8 34 14 37 14 8 0 177 66 236 92 148
65 260 119 375 181 127 68 325 185 335 197 3 4 34 26 70 50 238 160 513 421
689 652 89 118 251 365 251 382 0 5 26 63 59 130 32 66 64 137 70 156 6 19 31
98 56 174 87 270 125 520 132 887 3 144 1 282 -6 355 -7 65 -16 165 -22 222
-10 112 -57 306 -113 471 -20 58 -36 111 -36 119 0 28 -155 340 -217 435 -34
54 -63 101 -63 106 0 4 -31 47 -70 95 -38 48 -70 90 -70 95 0 11 -325 338
-395 397 -33 28 -85 68 -115 90 -30 21 -57 41 -60 45 -11 14 -265 179 -340
222 -74 41 -271 147 -275 147 -3 0 -33 14 -67 30 -459 223 -1153 425 -1832
535 -820 132 -1453 165 -3163 165 l-913 0 0 -3455z"/>
<path d="M55210 8775 l0 -6297 1593 5 c1564 5 1741 8 2257 42 1114 74 2079
237 2925 495 172 52 236 74 415 138 205 74 428 162 536 212 35 17 66 30 69 30
11 0 457 226 520 263 33 20 82 49 108 64 405 238 789 534 1102 849 118 119
325 348 325 359 0 3 30 43 68 88 37 45 72 90 77 99 6 10 38 57 73 105 84 117
199 296 215 336 8 17 32 61 54 97 47 78 212 412 223 455 5 17 40 108 79 203
39 95 71 180 71 189 0 8 24 90 54 182 29 91 61 198 69 236 94 412 143 685 157
875 5 69 14 168 19 220 36 344 39 1024 6 1365 -8 88 -19 216 -25 285 -11 143
-43 334 -100 600 -60 281 -68 312 -126 491 -30 92 -54 173 -54 181 0 9 -27 82
-61 164 -33 82 -67 169 -75 194 -8 25 -46 109 -84 187 -39 77 -70 144 -70 149
0 4 -31 62 -70 130 -38 67 -70 125 -70 129 0 4 -31 55 -70 114 -38 59 -70 111
-70 115 0 4 -31 50 -70 102 -38 52 -70 97 -70 100 0 7 -133 178 -217 278 -208
247 -523 559 -718 711 -27 21 -54 44 -60 50 -5 6 -44 37 -85 67 -41 31 -106
81 -145 110 -38 30 -99 74 -135 98 -36 25 -67 48 -70 51 -3 3 -34 23 -70 45
-36 21 -67 42 -70 45 -21 27 -522 301 -710 388 -63 29 -128 60 -145 68 -32 16
-252 107 -375 155 -300 119 -807 272 -1200 363 -650 151 -1249 233 -2175 297
-117 8 -743 12 -1997 15 l-1828 4 0 -6296z"/>
<path d="M1292 4148 l-2 -4128 9230 0 9230 0 0 88 c0 48 5 772 11 1610 6 838
8 1526 5 1529 -6 7 -41 -15 -78 -50 -15 -13 -55 -47 -90 -73 -35 -27 -70 -56
-79 -64 -20 -19 -128 -104 -193 -152 -28 -21 -60 -46 -71 -56 -11 -10 -50 -40
-88 -68 -37 -27 -102 -75 -145 -106 -42 -32 -104 -76 -137 -99 -33 -24 -62
-45 -65 -49 -3 -4 -38 -29 -79 -56 -154 -103 -179 -119 -202 -136 -38 -28
-335 -221 -406 -264 -17 -10 -103 -62 -190 -115 -524 -318 -1073 -600 -1628
-836 -110 -46 -209 -88 -220 -93 -76 -33 -352 -140 -362 -140 -5 0 -21 -7 -36
-15 -40 -21 -586 -202 -792 -264 -636 -189 -1182 -308 -1980 -430 -173 -27
-524 -66 -765 -86 -107 -8 -224 -20 -260 -25 -202 -31 -878 -45 -1450 -30
-472 11 -542 15 -925 44 -1126 87 -2027 245 -2900 507 -149 45 -542 178 -573
195 -15 8 -30 14 -35 14 -27 0 -447 177 -652 274 -221 105 -673 348 -730 393
-5 5 -41 27 -80 51 -127 77 -298 192 -421 284 -139 103 -342 263 -359 282 -5
6 -35 31 -65 56 -54 44 -127 110 -199 179 -20 19 -63 60 -96 91 -85 79 -355
366 -355 377 0 5 -18 27 -41 48 -22 22 -60 65 -83 96 -23 31 -66 85 -94 120
-67 82 -212 277 -212 285 0 4 -31 50 -70 104 -38 54 -70 100 -70 104 0 4 -31
56 -70 116 -38 60 -70 112 -70 116 0 4 -34 65 -75 135 -41 70 -75 132 -75 137
0 6 -31 69 -70 141 -38 72 -70 137 -70 145 0 7 -27 70 -60 139 -50 104 -81
181 -114 282 -1 6 -12 30 -23 55 -18 41 -36 87 -38 100 0 3 -6 14 -12 25 -6
11 -11 22 -11 25 0 3 -5 17 -10 31 -6 14 -11 38 -13 55 -2 16 -6 34 -10 39 -5
8 -51 139 -54 155 -1 3 -17 55 -37 115 -20 61 -38 128 -41 150 -2 22 -9 51
-15 65 -5 14 -10 30 -11 35 -1 6 -6 28 -12 50 -6 22 -13 48 -15 57 -2 10 -6
27 -9 38 -3 11 -7 29 -10 40 -3 11 -7 29 -10 40 -3 11 -7 29 -10 40 -10 41
-16 66 -20 85 -7 30 -14 62 -20 88 -5 22 -10 53 -20 132 -3 22 -7 50 -10 63
-14 68 -21 102 -30 162 -3 19 -8 44 -11 55 -21 96 -75 501 -83 625 -6 85 -17
247 -26 360 -9 113 -20 347 -24 520 -4 173 -8 -1542 -9 -3812z"/>
<path d="M70974 3263 c-79 -75 -258 -230 -347 -301 -23 -19 -60 -49 -82 -67
-76 -64 -148 -120 -213 -168 -36 -26 -68 -51 -71 -55 -4 -5 -35 -28 -71 -52
-36 -24 -66 -47 -68 -51 -2 -4 -33 -27 -70 -50 -37 -24 -69 -46 -72 -50 -10
-12 -424 -286 -523 -345 -26 -16 -83 -50 -125 -76 -42 -25 -126 -74 -187 -108
-60 -35 -123 -71 -140 -81 -159 -94 -603 -319 -890 -449 -38 -18 -88 -40 -110
-51 -69 -31 -317 -135 -441 -184 -724 -288 -1380 -488 -2259 -689 -812 -186
-2076 -359 -2930 -401 -66 -4 -142 -10 -170 -15 -60 -11 -528 -29 -1010 -39
-192 -4 1939 -9 4738 -9 l5087 -2 0 1640 c0 902 -1 1640 -3 1640 -2 0 -21 -17
-43 -37z"/>
</g>
</svg>
