<svg xmlns="http://www.w3.org/2000/svg" width="143.475" height="66.322" viewBox="0 0 143.475 66.322">
  <g id="Grupo_6" data-name="Grupo 6" transform="translate(-80.459 -14.277)">
    <g id="Grupo_4" data-name="Grupo 4" transform="translate(80.459 14.277)">
      <path id="Trazado_17" data-name="Trazado 17" d="M11.52,12.99h5.767v14a4.7,4.7,0,0,0,.844,3.024,2.952,2.952,0,0,0,2.462.985,3.507,3.507,0,0,0,2.743-1.125,4.661,4.661,0,0,0,.985-3.095v-12.1H22.632V12.99H28.4V31.276h1.688v1.688H24.461l-.141-2.04a8.286,8.286,0,0,1-2.462,1.829,6.65,6.65,0,0,1-2.884.633,5.534,5.534,0,0,1-4.29-1.547A6.569,6.569,0,0,1,13.208,27.2V14.748H11.52V12.99Z" transform="translate(-11.52 -8.137)"/>
      <path id="Trazado_18" data-name="Trazado 18" d="M15.676,26.2V15.652L14.34,16V14.6l4.712-1.407h.141v2.391a13.232,13.232,0,0,1,2.743-1.829,5.289,5.289,0,0,1,2.391-.633,3.769,3.769,0,0,1,2.954,1.125,4.56,4.56,0,0,1,1.125,3.165V26.2h1.336v1.407H23.553V26.2H24.89V17.832a2.25,2.25,0,0,0-.563-1.618,2.189,2.189,0,0,0-1.547-.563,4.274,4.274,0,0,0-1.758.422,7.079,7.079,0,0,0-1.758,1.2V26.2H20.6v1.407H14.41V26.2Z" transform="translate(5.493 -7.353)"/>
      <path id="Trazado_19" data-name="Trazado 19" d="M21.553,17.343h.141a6.436,6.436,0,0,0-.07,1.125V30.425h1.336v1.407H16.7V30.425h1.336V19.8l-1.336.352V18.82Zm-3.868-2.954a2.091,2.091,0,0,1,.563-1.407,1.806,1.806,0,0,1,1.407-.563,1.964,1.964,0,0,1,1.407.563,1.806,1.806,0,0,1,.563,1.407,2.024,2.024,0,0,1-.633,1.477,1.879,1.879,0,0,1-2.813,0A2.336,2.336,0,0,1,17.685,14.389Z" transform="translate(19.731 -11.576)"/>
      <path id="Trazado_20" data-name="Trazado 20" d="M22.011,13.12a13.675,13.675,0,0,0,.352,1.407A12.679,12.679,0,0,0,22.925,16a13.625,13.625,0,0,1,2.11-2.251,3.086,3.086,0,0,1,1.9-.633,8.136,8.136,0,0,1,1.9.281,7.735,7.735,0,0,0,1.758.281,2.168,2.168,0,0,0,.7-.07,6.85,6.85,0,0,0,.774-.352l.633.563c-.211.422-.563,1.055-.914,1.9a2.766,2.766,0,0,0-.141.422l-3.868,9.143c-.141.422-.281.774-.422,1.125a6.585,6.585,0,0,0-.281,1.125H24.191a13.13,13.13,0,0,0-.7-1.829.258.258,0,0,1-.07-.211L19.2,15.933l-1.2.492L17.51,15.3ZM29.959,16a1.134,1.134,0,0,1-.492.281,1.561,1.561,0,0,1-.633.07,6.5,6.5,0,0,1-1.547-.281,7.151,7.151,0,0,0-1.547-.352,2.371,2.371,0,0,0-1.2.352,3.164,3.164,0,0,0-1.125,1.055l3.095,7.244Z" transform="translate(24.618 -7.353)"/>
      <path id="Trazado_21" data-name="Trazado 21" d="M30.923,19.309,23.609,21.7A5.659,5.659,0,0,0,25.3,24.373a4.17,4.17,0,0,0,2.743.914,5.138,5.138,0,0,0,2.11-.422,7.442,7.442,0,0,0,1.9-1.266l.844.914a9.632,9.632,0,0,1-3.024,2.6,7.507,7.507,0,0,1-3.728.914,5.949,5.949,0,0,1-4.712-2.11A7.884,7.884,0,0,1,19.6,20.645,7.555,7.555,0,0,1,21.64,15.3a6.418,6.418,0,0,1,4.923-2.18,6.067,6.067,0,0,1,2.532.563,5.9,5.9,0,0,1,2.11,1.688A7.975,7.975,0,0,1,32.33,17.2a6.6,6.6,0,0,1,.492,1.336q0,.211-.844.422C31.556,19.1,31.2,19.239,30.923,19.309Zm-1.688-1.125a7.221,7.221,0,0,0-1.407-2.532,3.021,3.021,0,0,0-2.04-.914,2.471,2.471,0,0,0-2.04,1.055,4.154,4.154,0,0,0-.774,2.673v.774a2.991,2.991,0,0,0,.141.774Z" transform="translate(37.227 -7.353)"/>
      <path id="Trazado_22" data-name="Trazado 22" d="M31.889,13.11l1.125.492-1.688,3.8a5.961,5.961,0,0,0-1.266-.7,2.822,2.822,0,0,0-1.055-.211,1.633,1.633,0,0,0-1.336.633,2.621,2.621,0,0,0-.492,1.758v7.314h1.688V27.6H22.324V26.192H23.66v-8.44a2.02,2.02,0,0,0-.141-.844.72.72,0,0,0-.422-.352l-.633.633-.985-.914,2.462-3.165a7.579,7.579,0,0,1,1.758,1.2,3.747,3.747,0,0,1,.914,1.407,7.693,7.693,0,0,1,1.407-2.04,1.758,1.758,0,0,1,1.336-.563,4.84,4.84,0,0,1,.914.141c.352.141.7.281,1.125.492Z" transform="translate(48.57 -7.413)"/>
      <path id="Trazado_23" data-name="Trazado 23" d="M33.46,14.647l-1.547,2.321a15.476,15.476,0,0,0-2.04-1.618,3.521,3.521,0,0,0-1.758-.492,1.728,1.728,0,0,0-1.055.352,1.238,1.238,0,0,0-.422.914c0,.774,1.2,1.618,3.517,2.673.07,0,.07.07.141.07a7.585,7.585,0,0,1,2.954,1.9,3.718,3.718,0,0,1,.7,2.391A4.471,4.471,0,0,1,32.334,26.6a6.243,6.243,0,0,1-4.079,1.407A7.977,7.977,0,0,1,22.91,25.9l1.9-2.673a11.061,11.061,0,0,0,2.532,2.18,3.979,3.979,0,0,0,2.18.7,1.857,1.857,0,0,0,1.336-.492,1.543,1.543,0,0,0,.492-1.2c0-.774-.914-1.547-2.673-2.391a.544.544,0,0,0-.211-.07,11,11,0,0,1-3.587-2.321,3.689,3.689,0,0,1-.774-2.321A3.977,3.977,0,0,1,25.512,14.3a5.319,5.319,0,0,1,3.517-1.2,7.926,7.926,0,0,1,2.251.352A16.728,16.728,0,0,1,33.46,14.647Z" transform="translate(57.197 -7.474)"/>
      <path id="Trazado_24" data-name="Trazado 24" d="M29.343,17.343h.141a6.437,6.437,0,0,0-.07,1.125V30.425h1.336v1.407H24.56V30.425H25.9V19.8l-1.336.352V18.82Zm-3.868-2.954a1.874,1.874,0,0,1,.633-1.407,1.806,1.806,0,0,1,1.407-.563,1.964,1.964,0,0,1,1.407.563,1.806,1.806,0,0,1,.563,1.407,2.024,2.024,0,0,1-.633,1.477,1.879,1.879,0,0,1-2.813,0A2.419,2.419,0,0,1,25.474,14.389Z" transform="translate(67.152 -11.576)"/>
      <path id="Trazado_25" data-name="Trazado 25" d="M40.38,12.3v1.477l-1.266.422V31.078H40.45v1.407H35.808L35.527,30.8a8.072,8.072,0,0,1-2.11,1.547,5.211,5.211,0,0,1-2.251.492,5.035,5.035,0,0,1-4.079-1.9,7.572,7.572,0,0,1-1.547-4.994,8.387,8.387,0,0,1,1.969-5.7,5.891,5.891,0,0,1,4.642-2.321,4.856,4.856,0,0,1,1.758.281,6.845,6.845,0,0,1,1.618.774V15.254l-1.336.422V14.2ZM35.527,22.85a3.417,3.417,0,0,0-.774-2.321,2.809,2.809,0,0,0-2.18-.844,2.945,2.945,0,0,0-2.462,1.407,6.663,6.663,0,0,0-.985,3.728,7.573,7.573,0,0,0,1.055,4.15,3.216,3.216,0,0,0,2.743,1.618,3.46,3.46,0,0,0,1.407-.352,3.216,3.216,0,0,0,1.2-.985Z" transform="translate(73.064 -12.3)"/>
      <path id="Trazado_26" data-name="Trazado 26" d="M30.774,13.08l1.266.352-.281.985a6.793,6.793,0,0,1,1.829-.774,8.232,8.232,0,0,1,1.829-.281A4.9,4.9,0,0,1,39,14.557a5.2,5.2,0,0,1,1.2,3.657v8.229h1.336V27.85H36.963l-.352-1.618a6.046,6.046,0,0,1-2.04,1.547,5,5,0,0,1-2.251.492,4.248,4.248,0,0,1-3.235-1.336A4.68,4.68,0,0,1,27.75,23.63,4.325,4.325,0,0,1,29.579,19.9a9.125,9.125,0,0,1,5.275-1.266h.914a4.326,4.326,0,0,1,.914.07v-.985a2.281,2.281,0,0,0-.633-1.688,2.313,2.313,0,0,0-1.758-.563,3.665,3.665,0,0,0-2.04.633A4.746,4.746,0,0,0,30.7,17.863l-1.336-.492Zm5.908,6.963a1.947,1.947,0,0,0-.633-.07h-.7a4.178,4.178,0,0,0-2.884.914,3.109,3.109,0,0,0-1.125,2.391,2.935,2.935,0,0,0,.774,2.04,2.6,2.6,0,0,0,1.9.774,2.454,2.454,0,0,0,1.969-.844,3.394,3.394,0,0,0,.7-2.321V20.043Z" transform="translate(86.397 -7.594)"/>
      <path id="Trazado_27" data-name="Trazado 27" d="M44.58,12.3v1.477l-1.266.422V31.078H44.65v1.407H40.078L39.8,30.8a8.072,8.072,0,0,1-2.11,1.547,5.211,5.211,0,0,1-2.251.492,5.035,5.035,0,0,1-4.079-1.9,7.572,7.572,0,0,1-1.547-4.994,8.387,8.387,0,0,1,1.969-5.7,5.792,5.792,0,0,1,4.642-2.321,4.856,4.856,0,0,1,1.758.281,6.845,6.845,0,0,1,1.618.774V15.254l-1.336.422V14.2ZM39.8,22.85a3.417,3.417,0,0,0-.774-2.321,2.809,2.809,0,0,0-2.18-.844,2.945,2.945,0,0,0-2.462,1.407,6.664,6.664,0,0,0-.985,3.728,7.573,7.573,0,0,0,1.055,4.15,3.216,3.216,0,0,0,2.743,1.618,3.46,3.46,0,0,0,1.407-.352,3.217,3.217,0,0,0,1.2-.985Z" transform="translate(98.825 -12.3)"/>
      <g id="Grupo_2" data-name="Grupo 2" transform="translate(19.904 22.787)">
        <path id="Trazado_28" data-name="Trazado 28" d="M14.35,15.59h7.455a10.067,10.067,0,0,1,6.541,1.9,6.581,6.581,0,0,1,2.321,5.345,6.889,6.889,0,0,1-2.11,5.2,7.262,7.262,0,0,1-5.345,2.04,11.543,11.543,0,0,1-1.618-.141,4.669,4.669,0,0,1-1.407-.422v4.22h1.969v1.688H14.42V33.735h1.688v-16.6H14.42V15.59Zm5.7,1.829v8.229a3.325,3.325,0,0,0,.563,2.251,2.14,2.14,0,0,0,1.758.633,3.5,3.5,0,0,0,2.884-1.407,6.235,6.235,0,0,0,1.055-3.8,6.175,6.175,0,0,0-1.407-4.29,4.941,4.941,0,0,0-3.939-1.547h-.914Z" transform="translate(-14.35 -15.238)"/>
        <path id="Trazado_29" data-name="Trazado 29" d="M24.286,31.27A7.421,7.421,0,0,1,18.8,29.16a7,7,0,0,1-2.18-5.345A7,7,0,0,1,18.8,18.47a7.647,7.647,0,0,1,5.486-2.11,7.7,7.7,0,0,1,5.556,2.11,7,7,0,0,1,2.18,5.345,7,7,0,0,1-2.18,5.345A7.419,7.419,0,0,1,24.286,31.27Zm-3.939-8.51a8.6,8.6,0,0,0,1.336,4.923,3.913,3.913,0,0,0,3.165,2.04,2.8,2.8,0,0,0,2.462-1.266,5.573,5.573,0,0,0,.914-3.446,8.449,8.449,0,0,0-1.336-4.923,3.925,3.925,0,0,0-3.235-2.04,2.764,2.764,0,0,0-2.391,1.266A5.572,5.572,0,0,0,20.348,22.76Z" transform="translate(-0.655 -10.593)"/>
        <path id="Trazado_30" data-name="Trazado 30" d="M20.256,29.452V18.9l-1.336.352V17.847l4.712-1.407h.141v2.391A13.232,13.232,0,0,1,26.516,17a5.289,5.289,0,0,1,2.391-.633A3.769,3.769,0,0,1,31.861,17.5a4.56,4.56,0,0,1,1.125,3.165v8.791h1.336v1.407H28.133V29.452H29.47V21.082a2.25,2.25,0,0,0-.563-1.618A2.189,2.189,0,0,0,27.36,18.9a4.274,4.274,0,0,0-1.758.422,7.078,7.078,0,0,0-1.758,1.2v8.932h1.336v1.407H18.99V29.452h1.266Z" transform="translate(13.221 -10.533)"/>
        <path id="Trazado_31" data-name="Trazado 31" d="M25.319,15.96l.985.281v3.165h2.813l-.211,1.2c-.07.281-.07.422-.211.492a.909.909,0,0,1-.563.141h-1.9V29.6a2.781,2.781,0,0,0,.352,1.547,1.11,1.11,0,0,0,1.055.492,2.053,2.053,0,0,0,.633-.141,2.865,2.865,0,0,0,.774-.422L29.68,32a7.834,7.834,0,0,1-1.9,1.336,5.3,5.3,0,0,1-2.04.422,2.928,2.928,0,0,1-2.321-.844,4.049,4.049,0,0,1-.7-2.673V21.165H21.24V20.039a8.628,8.628,0,0,0,2.6-1.618A7.917,7.917,0,0,0,25.319,15.96Z" transform="translate(27.218 -13.006)"/>
        <path id="Trazado_32" data-name="Trazado 32" d="M27.253,20.654h.141a6.437,6.437,0,0,0-.07,1.125V33.735h1.336v1.407H22.47V33.735h1.336V23.115l-1.336.352V22.13ZM23.314,17.7a2.091,2.091,0,0,1,.563-1.407,1.874,1.874,0,0,1,1.407-.633,1.964,1.964,0,0,1,1.407.563,1.806,1.806,0,0,1,.563,1.407,2.27,2.27,0,0,1-.563,1.477,1.879,1.879,0,0,1-2.813,0A2.091,2.091,0,0,1,23.314,17.7Z" transform="translate(34.639 -14.816)"/>
        <path id="Trazado_33" data-name="Trazado 33" d="M24,35.866V34.459h1.336V24.05h-1.9l.633-1.829H25.55a4.548,4.548,0,0,1-.633-1.125,2.915,2.915,0,0,1-.211-1.125,3.985,3.985,0,0,1,1.618-3.024A5.327,5.327,0,0,1,29.84,15.54a4.607,4.607,0,0,1,1.758.352,3.4,3.4,0,0,1,1.407.985l-2.321,1.9a6.5,6.5,0,0,0-1.055-1.2,1.352,1.352,0,0,0-.844-.281,1.265,1.265,0,0,0-1.055.492,1.835,1.835,0,0,0-.422,1.266,3.034,3.034,0,0,0,.985,2.251,3.342,3.342,0,0,0,2.462.914h1.336l-.7,1.829H28.926V34.459H30.9v1.407H24Z" transform="translate(40.491 -15.54)"/>
        <path id="Trazado_34" data-name="Trazado 34" d="M29.442,20.654h.141a6.435,6.435,0,0,0-.07,1.125V33.735h1.336v1.407H24.66V33.735H26V23.115l-1.336.352V22.13ZM25.574,17.7a2.175,2.175,0,0,1,2.04-2.04,1.964,1.964,0,0,1,1.407.563,1.806,1.806,0,0,1,.563,1.407,2.024,2.024,0,0,1-.633,1.477,1.879,1.879,0,0,1-2.813,0A2.091,2.091,0,0,1,25.574,17.7Z" transform="translate(47.851 -14.816)"/>
        <path id="Trazado_35" data-name="Trazado 35" d="M38.44,19.033l-2.532,2.391a7.818,7.818,0,0,0-1.547-2.462,2.817,2.817,0,0,0-2.04-.844,2.965,2.965,0,0,0-2.391,1.2,5.144,5.144,0,0,0-.985,3.165,6.68,6.68,0,0,0,1.477,4.361A4.157,4.157,0,0,0,33.8,28.668a3.9,3.9,0,0,0,1.969-.492A6.781,6.781,0,0,0,37.526,26.7l.844.7a7.167,7.167,0,0,1-2.6,2.813,6.722,6.722,0,0,1-8.3-.844,7.036,7.036,0,0,1-1.829-4.993,7.859,7.859,0,0,1,2.18-5.626,7.083,7.083,0,0,1,5.2-2.391,6.963,6.963,0,0,1,2.954.633A8.477,8.477,0,0,1,38.44,19.033Z" transform="translate(53.764 -10.593)"/>
        <path id="Trazado_36" data-name="Trazado 36" d="M32.332,20.654h.141a6.435,6.435,0,0,0-.07,1.125V33.735h1.336v1.407H27.55V33.735h1.336V23.115l-1.336.352V22.13ZM28.464,17.7a2.175,2.175,0,0,1,2.04-2.04,1.964,1.964,0,0,1,1.407.563,1.806,1.806,0,0,1,.563,1.407,2.024,2.024,0,0,1-.633,1.477,1.879,1.879,0,0,1-2.813,0A2.091,2.091,0,0,1,28.464,17.7Z" transform="translate(65.287 -14.816)"/>
        <path id="Trazado_37" data-name="Trazado 37" d="M31.554,16.32l1.266.352-.281.985a6.793,6.793,0,0,1,1.829-.774A5.509,5.509,0,0,1,36.2,16.6a4.9,4.9,0,0,1,3.587,1.2,5.2,5.2,0,0,1,1.2,3.657v8.229h1.336V31.09H37.743l-.352-1.618a6.046,6.046,0,0,1-2.04,1.547,5,5,0,0,1-2.251.492,4.247,4.247,0,0,1-3.235-1.336A4.68,4.68,0,0,1,28.53,26.87a4.325,4.325,0,0,1,1.829-3.728,9.125,9.125,0,0,1,5.275-1.266h.914c.281,0,.563.07.914.07v-.985a2.018,2.018,0,0,0-.633-1.618,2.313,2.313,0,0,0-1.758-.563,3.29,3.29,0,0,0-1.969.633,4.746,4.746,0,0,0-1.547,1.758l-1.336-.492Zm5.837,7.033a1.947,1.947,0,0,0-.633-.07h-.7a4.178,4.178,0,0,0-2.884.914,3.109,3.109,0,0,0-1.125,2.391,2.935,2.935,0,0,0,.774,2.04,2.6,2.6,0,0,0,1.9.774,2.454,2.454,0,0,0,1.969-.844,3.394,3.394,0,0,0,.7-2.321V23.353Z" transform="translate(71.199 -10.834)"/>
      </g>
      <g id="Grupo_3" data-name="Grupo 3" transform="translate(3.376 45.715)">
        <path id="Trazado_38" data-name="Trazado 38" d="M22.128,26.566a6.53,6.53,0,0,1,4.22,1.829A5.406,5.406,0,0,1,27.895,32.4a5.814,5.814,0,0,1-1.969,4.642A7.349,7.349,0,0,1,20.791,38.8H12V37.116h1.688v-16.6H12V18.83h7.736a7.879,7.879,0,0,1,4.5,1.055,3.506,3.506,0,0,1,1.477,3.095,3.151,3.151,0,0,1-.985,2.251A5.38,5.38,0,0,1,22.128,26.566Zm-4.572-.7h1.266a3.79,3.79,0,0,0,2.321-.633,2.18,2.18,0,0,0,.774-1.9,2.222,2.222,0,0,0-.844-1.9,4.2,4.2,0,0,0-2.532-.633H17.486v5.064Zm0,1.829v9.284h1.477A5.181,5.181,0,0,0,22.69,35.85a4.384,4.384,0,0,0,1.2-3.446,4.763,4.763,0,0,0-1.2-3.446,4.384,4.384,0,0,0-3.446-1.2H17.556Z" transform="translate(-12 -18.619)"/>
        <path id="Trazado_39" data-name="Trazado 39" d="M21.956,34.52a7.533,7.533,0,0,1-5.486-2.11,7,7,0,0,1-2.18-5.345,7,7,0,0,1,2.18-5.345,7.647,7.647,0,0,1,5.486-2.11,7.7,7.7,0,0,1,5.556,2.11,7,7,0,0,1,2.18,5.345,7,7,0,0,1-2.18,5.345A7.7,7.7,0,0,1,21.956,34.52Zm-3.939-8.51a8.6,8.6,0,0,0,1.336,4.923,3.913,3.913,0,0,0,3.165,2.04,2.8,2.8,0,0,0,2.462-1.266,5.573,5.573,0,0,0,.914-3.446,8.449,8.449,0,0,0-1.336-4.923,3.925,3.925,0,0,0-3.235-2.04,2.764,2.764,0,0,0-2.391,1.266A5.438,5.438,0,0,0,18.018,26.01Z" transform="translate(1.816 -13.913)"/>
        <path id="Trazado_40" data-name="Trazado 40" d="M22.7,18.8v1.407l-1.266.422V37.508h1.336v1.407H16.58V37.508h1.336V21.754l-1.336.422V20.7Z" transform="translate(15.632 -18.8)"/>
        <path id="Trazado_41" data-name="Trazado 41" d="M22.422,23.894h.141a6.436,6.436,0,0,0-.07,1.125V36.975h1.336v1.407H17.64V36.975h1.336V26.355l-1.336.352V25.37ZM18.554,20.94a2.091,2.091,0,0,1,.563-1.407,1.771,1.771,0,0,1,1.407-.633,1.964,1.964,0,0,1,1.407.563,1.806,1.806,0,0,1,.563,1.407,2.024,2.024,0,0,1-.633,1.477,1.879,1.879,0,0,1-2.813,0A1.916,1.916,0,0,1,18.554,20.94Z" transform="translate(22.027 -18.197)"/>
        <path id="Trazado_42" data-name="Trazado 42" d="M22.941,19.61a13.681,13.681,0,0,0,.352,1.407,12.677,12.677,0,0,0,.563,1.477,13.626,13.626,0,0,1,2.11-2.251,3.086,3.086,0,0,1,1.9-.633,8.136,8.136,0,0,1,1.9.281,7.735,7.735,0,0,0,1.758.281,2.168,2.168,0,0,0,.7-.07A6.852,6.852,0,0,0,33,19.751l.633.563c-.211.422-.563,1.055-.914,1.9a2.766,2.766,0,0,0-.141.422l-3.868,9.143c-.141.422-.281.774-.422,1.125a6.585,6.585,0,0,0-.281,1.125H25.121a17.681,17.681,0,0,0-.7-1.829.258.258,0,0,1-.07-.211l-4.22-9.565-1.2.492L18.44,21.79Zm7.947,2.954a1.134,1.134,0,0,1-.492.281,1.561,1.561,0,0,1-.633.07,8.167,8.167,0,0,1-1.547-.352,5.976,5.976,0,0,0-1.547-.281,2.371,2.371,0,0,0-1.2.352,3.164,3.164,0,0,0-1.125,1.055l3.095,7.244Z" transform="translate(26.853 -13.913)"/>
        <path id="Trazado_43" data-name="Trazado 43" d="M23.554,19.57l1.266.352-.281.985a6.793,6.793,0,0,1,1.829-.774,8.232,8.232,0,0,1,1.829-.281,4.9,4.9,0,0,1,3.587,1.2,5.2,5.2,0,0,1,1.2,3.657v8.229h1.336v1.407H29.743l-.352-1.618a6.046,6.046,0,0,1-2.04,1.547,5,5,0,0,1-2.251.492,4.247,4.247,0,0,1-3.235-1.336A4.68,4.68,0,0,1,20.53,30.12a4.325,4.325,0,0,1,1.829-3.728,9.125,9.125,0,0,1,5.275-1.266h.914a4.326,4.326,0,0,1,.914.07v-.985a2.281,2.281,0,0,0-.633-1.688,2.313,2.313,0,0,0-1.758-.563,3.29,3.29,0,0,0-1.969.633,4.746,4.746,0,0,0-1.547,1.758l-1.336-.492ZM29.392,26.6a1.947,1.947,0,0,0-.633-.07h-.7a4.178,4.178,0,0,0-2.884.914,3.076,3.076,0,0,0-1.125,2.321,2.935,2.935,0,0,0,.774,2.04,2.6,2.6,0,0,0,1.9.774,2.454,2.454,0,0,0,1.969-.844,3.394,3.394,0,0,0,.7-2.321V26.6Z" transform="translate(39.462 -14.155)"/>
        <path id="Trazado_44" data-name="Trazado 44" d="M32.879,19.6,34,20.092l-1.688,3.8a5.961,5.961,0,0,0-1.266-.7,2.761,2.761,0,0,0-.985-.211,1.633,1.633,0,0,0-1.336.633,2.621,2.621,0,0,0-.492,1.758v7.314h1.688v1.407H23.384V32.682H24.72v-8.44a2.02,2.02,0,0,0-.141-.844.72.72,0,0,0-.422-.352l-.633.633-.985-.914L25,19.6a7.579,7.579,0,0,1,1.758,1.2,3.748,3.748,0,0,1,.914,1.407,7.693,7.693,0,0,1,1.407-2.04,1.758,1.758,0,0,1,1.336-.563,4.84,4.84,0,0,1,.914.141c.352.141.7.281,1.125.492Z" transform="translate(51.589 -13.974)"/>
        <path id="Trazado_45" data-name="Trazado 45" d="M28.933,23.894h.141A6.435,6.435,0,0,0,29,25.019V36.975h1.336v1.407H24.15V36.975h1.336V26.355l-1.336.352V25.37ZM25.064,20.94a2.091,2.091,0,0,1,.563-1.407,1.874,1.874,0,0,1,1.407-.633,1.964,1.964,0,0,1,1.407.563A1.806,1.806,0,0,1,29,20.869a2.024,2.024,0,0,1-.633,1.477,1.879,1.879,0,0,1-2.813,0A1.916,1.916,0,0,1,25.064,20.94Z" transform="translate(61.302 -18.197)"/>
        <path id="Trazado_46" data-name="Trazado 46" d="M28.144,19.57l1.266.352-.281.985a6.793,6.793,0,0,1,1.829-.774,8.232,8.232,0,0,1,1.829-.281,4.9,4.9,0,0,1,3.587,1.2,5.2,5.2,0,0,1,1.2,3.657v8.229H38.9v1.407H34.333l-.352-1.618a6.046,6.046,0,0,1-2.04,1.547,5,5,0,0,1-2.251.492,4.247,4.247,0,0,1-3.235-1.336A4.68,4.68,0,0,1,25.12,30.12a4.325,4.325,0,0,1,1.829-3.728,9.125,9.125,0,0,1,5.275-1.266h.914a4.326,4.326,0,0,1,.914.07v-.985a2.281,2.281,0,0,0-.633-1.688,2.313,2.313,0,0,0-1.758-.563,3.29,3.29,0,0,0-1.969.633,4.746,4.746,0,0,0-1.547,1.758l-1.336-.492ZM34.052,26.6a1.947,1.947,0,0,0-.633-.07h-.7a4.178,4.178,0,0,0-2.884.914,3.076,3.076,0,0,0-1.125,2.321,2.935,2.935,0,0,0,.774,2.04,2.6,2.6,0,0,0,1.9.774,2.454,2.454,0,0,0,1.969-.844,3.394,3.394,0,0,0,.7-2.321V26.6Z" transform="translate(67.154 -14.155)"/>
        <path id="Trazado_47" data-name="Trazado 47" d="M28.576,32.692V22.142l-1.336.352V21.087l4.712-1.407h.141v2.391a13.231,13.231,0,0,1,2.743-1.829,5.289,5.289,0,0,1,2.391-.633,3.769,3.769,0,0,1,2.954,1.125A4.56,4.56,0,0,1,41.306,23.9v8.791h1.336V34.1H36.453V32.692H37.79V24.322a2.25,2.25,0,0,0-.563-1.618,2.189,2.189,0,0,0-1.547-.563,4.274,4.274,0,0,0-1.758.422,7.079,7.079,0,0,0-1.758,1.2v8.932H33.5V34.1H27.31V32.692h1.266Z" transform="translate(79.944 -13.913)"/>
        <path id="Trazado_48" data-name="Trazado 48" d="M32.554,19.57l1.266.352-.281.985a6.793,6.793,0,0,1,1.829-.774,8.232,8.232,0,0,1,1.829-.281,4.9,4.9,0,0,1,3.587,1.2,5.2,5.2,0,0,1,1.2,3.657v8.229h1.336v1.407H38.743l-.352-1.618a6.046,6.046,0,0,1-2.04,1.547,5,5,0,0,1-2.251.492,4.247,4.247,0,0,1-3.235-1.336A4.68,4.68,0,0,1,29.53,30.12a4.325,4.325,0,0,1,1.829-3.728,9.125,9.125,0,0,1,5.275-1.266h.914a4.326,4.326,0,0,1,.914.07v-.985a2.281,2.281,0,0,0-.633-1.688,2.313,2.313,0,0,0-1.758-.563,3.29,3.29,0,0,0-1.969.633,4.746,4.746,0,0,0-1.547,1.758l-1.336-.492ZM38.392,26.6a1.947,1.947,0,0,0-.633-.07h-.7a4.178,4.178,0,0,0-2.884.914,3.076,3.076,0,0,0-1.125,2.321,2.935,2.935,0,0,0,.774,2.04,2.6,2.6,0,0,0,1.9.774,2.454,2.454,0,0,0,1.969-.844,3.394,3.394,0,0,0,.7-2.321V26.6Z" transform="translate(93.76 -14.155)"/>
      </g>
    </g>
  </g>
</svg>
